<svg xmlns="http://www.w3.org/2000/svg" xmlns:xlink="http://www.w3.org/1999/xlink" width="54" height="54" version="1.1" viewBox="0 0 54 54"><title>doc-in</title><desc>Created with Sketch.</desc><g id="doc-in" fill="none" fill-rule="evenodd" stroke="none" stroke-width="1"><path id="Corner" fill="#287ED0" d="M54,22 C54,19.790861 52.209139,18 50,18 L40,18 C37.790861,18 36,16.209139 36,14 L36,4 C36,1.790861 34.209139,-4.05812251e-16 32,0 L33.8020203,8.8817842e-15 C35.3933192,1.00028247e-14 36.9194427,0.632141042 38.0446609,1.75735931 L52.2426407,15.9553391 C53.367859,17.0805573 54,18.6066808 54,20.1979797 L54,22 Z"/><path id="Base" fill="#4EA4F6" d="M36,4 L36,14 C36,16.209139 37.790861,18 40,18 L50,18 C52.209139,18 54,19.790861 54,22 L54,48 C54,51.3137085 51.3137085,54 48,54 L6,54 C2.6862915,54 0,51.3137085 0,48 L0,6 C0,2.6862915 2.6862915,0 6,0 L32,0 C34.209139,-4.05812251e-16 36,1.790861 36,4 Z"/></g></svg>